<?xml version="1.0" encoding="UTF-8"?>
<!DOCTYPE svg PUBLIC "-//W3C//DTD SVG 1.1//EN" "http://www.w3.org/Graphics/SVG/1.1/DTD/svg11.dtd">
<!-- Creator: CorelDRAW 2020 (64-Bit) -->
<svg xmlns="http://www.w3.org/2000/svg" xml:space="preserve" width="40.3315mm" height="36.5771mm" version="1.1" style="shape-rendering:geometricPrecision; text-rendering:geometricPrecision; image-rendering:optimizeQuality; fill-rule:evenodd; clip-rule:evenodd"
viewBox="0 0 893.3 810.14"
 xmlns:xlink="http://www.w3.org/1999/xlink"
 xmlns:xodm="http://www.corel.com/coreldraw/odm/2003">
 <defs>
  <style type="text/css">
   <![CDATA[
    .fil0 {fill:#141312;fill-rule:nonzero}
   ]]>
  </style>
 </defs>
 <g id="Слой_x0020_1">
  <metadata id="CorelCorpID_0Corel-Layer"/>
  <g id="_1431463887408">
   <path class="fil0" d="M684.63 656.23l-143.37 0.97 0 -15.6 86.81 0c1.3,-103.22 -5.2,-303.49 -19.51,-600.8l-154.59 369.49 -174.09 -409.48 106.31 0 0 17.56 -78.35 0 147.44 353.88 143.54 -353.56c0,-0.16 -29.59,-0.33 -88.76,-0.33l0 -17.56 149.23 1.95 25.36 653.47zm-250.17 -205.31l-8.29 22.92 -199.94 -473.03 21.29 -0.81 186.94 450.92zm-20.65 75.91l-31.54 67.95 -245.78 -576.42 -17.56 593c0,14.3 5.2,23.41 15.61,27.31 9.75,0.65 19.5,1.63 29.26,2.93l53.64 0 0.97 15.6 -209.69 0 0 -15.6 46.33 0c25.03,5.2 37.87,-4.55 38.53,-29.26 6.5,-128.75 14.31,-326.74 23.41,-593.97l-84.85 0 -1.95 -16.58 160.28 -0.98 223.35 526.03zm449.3 -526.03l0 17.56 -87.78 0 20.48 623.23 88.75 0 0 15.6 -109.24 0 -18.53 -655.42c3.25,0.65 38.69,0.32 106.31,-0.98zm-120.94 656.39l-16.58 0 -22.43 -652.49 16.58 0 22.43 652.49z"/>
   <path class="fil0" d="M124.37 693.54c-0.31,-2.94 -0.77,-4.17 -1.86,-4.17 -1.08,0 -1.7,1.08 -2.32,2.47l-45.42 97.02 -47.27 -97.17c-0.77,-1.7 -1.39,-2.32 -2.32,-2.32 -0.93,0 -1.55,1.24 -1.7,2.93l-11.12 100.58c-0.77,6.64 -1.39,11.89 -6.18,12.82 -2.32,0.47 -3.4,0.47 -4.64,0.47 -0.77,0 -1.55,0.31 -1.55,0.77 0,1.08 1.08,1.39 2.63,1.39 4.17,0 11.59,-0.46 12.97,-0.46 1.24,0 8.65,0.46 14.37,0.46 1.85,0 2.78,-0.31 2.78,-1.39 0,-0.46 -0.62,-0.77 -1.23,-0.77 -0.93,0 -3.25,-0.16 -5.87,-0.77 -2.31,-0.47 -4.01,-2.47 -4.01,-4.79 0,-3.4 0.15,-7.72 0.46,-11.9l5.87 -67.67 0.62 0 38.78 80.49c2.32,4.79 3.55,6.33 4.48,6.33 1.24,0 1.85,-1.08 4.32,-6.33l38.62 -82.04 0.47 0 7.26 78.02c0.16,1.85 0.31,3.86 0.31,4.33 0,1.7 -0.31,2.78 -0.77,2.93 -0.77,0.16 -1.08,0.47 -1.08,1.08 0,0.77 0.77,1.24 4.33,1.55 5.71,0.46 22.4,0.93 25.8,0.93 1.85,0 3.25,-0.46 3.25,-1.39 0,-0.62 -0.47,-0.77 -1.24,-0.77 -1.54,0 -5.56,0 -10.04,-1.39 -6.64,-2.16 -7.72,-10.81 -8.34,-16.37l-10.35 -94.86zm65.32 52.13c0,-20.96 0,-24.72 0.27,-29.01 0.27,-4.7 1.34,-6.99 4.97,-7.66 1.61,-0.27 2.42,-0.4 3.36,-0.4 0.54,0 1.07,-0.27 1.07,-0.81 0,-0.81 -0.67,-1.07 -2.15,-1.07 -4.03,0 -12.49,0.4 -13.17,0.4 -0.67,0 -9.13,-0.4 -13.57,-0.4 -1.48,0 -2.15,0.27 -2.15,1.07 0,0.54 0.54,0.81 1.08,0.81 0.94,0 2.68,0.14 4.16,0.54 2.95,0.67 4.3,2.96 4.57,7.52 0.27,4.3 0.27,8.06 0.27,29.01l0 23.64c0,12.9 0,23.51 -0.67,29.15 -0.54,3.89 -1.21,6.85 -3.89,7.39 -1.21,0.27 -2.82,0.54 -4.03,0.54 -0.81,0 -1.08,0.4 -1.08,0.81 0,0.81 0.67,1.07 2.15,1.07 4.03,0 12.49,-0.4 13.16,-0.4 0.67,0 9.14,0.4 16.52,0.4 1.48,0 2.15,-0.4 2.15,-1.07 0,-0.4 -0.27,-0.81 -1.07,-0.81 -1.21,0 -4.16,-0.27 -6.04,-0.54 -4.03,-0.54 -4.84,-3.49 -5.24,-7.39 -0.67,-5.64 -0.67,-16.25 -0.67,-29.15l0 -23.64zm59.1 0c0,-20.96 0,-24.72 0.27,-29.01 0.27,-4.7 1.34,-6.99 5.24,-7.66 1.61,-0.27 3.49,-0.4 4.43,-0.4 0.53,0 1.07,-0.27 1.07,-0.81 0,-0.81 -0.67,-1.07 -2.15,-1.07 -4.03,0 -13.84,0.4 -14.51,0.4 -0.67,0 -9.13,-0.4 -15.18,-0.4 -1.48,0 -2.15,0.27 -2.15,1.07 0,0.54 0.54,0.81 1.07,0.81 1.21,0 3.49,0.14 4.56,0.4 4.44,0.94 5.51,3.09 5.78,7.66 0.27,4.3 0.27,8.06 0.27,29.01l0 23.64c0,12.9 0,23.51 -0.68,29.15 -0.53,3.89 -1.21,6.85 -3.89,7.39 -1.21,0.27 -2.82,0.54 -4.03,0.54 -0.81,0 -1.08,0.4 -1.08,0.81 0,0.81 0.67,1.07 2.15,1.07 2.01,-0.14 4.97,-0.27 7.65,-0.4 2.69,0.14 4.97,0 5.51,0 7.79,0 16.66,0.81 36,0.81 7.12,0 7.52,-0.54 8.46,-3.63 1.08,-3.9 2.02,-11.96 2.02,-13.43 0,-1.48 -0.13,-2.02 -0.81,-2.02 -0.81,0 -1.07,0.67 -1.21,1.75 -0.4,2.55 -1.74,5.91 -3.49,8.06 -3.22,3.89 -9.13,4.03 -16.26,4.03 -10.48,0 -13.97,-0.94 -16.12,-3.09 -2.42,-2.42 -2.96,-11.01 -2.96,-30.76l0 -23.91zm79.52 0c0,-20.96 0,-24.72 0.27,-29.01 0.27,-4.7 1.34,-6.99 5.24,-7.66 1.61,-0.27 3.49,-0.4 4.43,-0.4 0.54,0 1.07,-0.27 1.07,-0.81 0,-0.81 -0.67,-1.07 -2.15,-1.07 -4.03,0 -13.83,0.4 -14.51,0.4 -0.67,0 -9.13,-0.4 -15.18,-0.4 -1.48,0 -2.15,0.27 -2.15,1.07 0,0.54 0.54,0.81 1.08,0.81 1.21,0 3.49,0.14 4.56,0.4 4.43,0.94 5.51,3.09 5.78,7.66 0.27,4.3 0.27,8.06 0.27,29.01l0 23.64c0,12.9 0,23.51 -0.67,29.15 -0.54,3.89 -1.21,6.85 -3.89,7.39 -1.21,0.27 -2.82,0.54 -4.03,0.54 -0.81,0 -1.08,0.4 -1.08,0.81 0,0.81 0.67,1.07 2.15,1.07 2.02,-0.14 4.97,-0.27 7.66,-0.4 2.69,0.14 4.97,0 5.51,0 7.79,0 16.66,0.81 36,0.81 7.12,0 7.52,-0.54 8.46,-3.63 1.08,-3.9 2.01,-11.96 2.01,-13.43 0,-1.48 -0.13,-2.02 -0.8,-2.02 -0.81,0 -1.07,0.67 -1.21,1.75 -0.4,2.55 -1.75,5.91 -3.49,8.06 -3.22,3.89 -9.14,4.03 -16.26,4.03 -10.48,0 -13.97,-0.94 -16.12,-3.09 -2.42,-2.42 -2.95,-11.01 -2.95,-30.76l0 -23.91zm79.52 -32.37c0,-0.94 0.27,-1.21 0.81,-1.21 2.69,0 14.78,0.4 15.58,0.4 7.93,0 11.15,2.69 11.96,4.43 0.81,1.75 1.21,4.03 1.21,5.11 0,0.94 0.27,1.48 0.94,1.48 0.67,0 0.94,-0.67 1.07,-1.34 0.27,-1.61 0.54,-7.52 0.67,-8.87 0.4,-3.76 1.08,-5.37 1.08,-6.31 0,-0.67 -0.27,-1.48 -0.8,-1.48 -0.54,0 -1.08,0.54 -1.88,0.81 -0.54,0.14 -3.76,0.4 -5.91,0.54 -2.15,0.13 -15.85,0.27 -30.36,0.27 -0.68,0 -9.14,-0.4 -15.18,-0.4 -1.48,0 -2.15,0.27 -2.15,1.07 0,0.54 0.54,0.81 1.08,0.81 1.21,0 3.49,0.14 4.56,0.4 4.43,0.94 5.24,2.95 5.64,6.18 0.27,2.29 0.4,7.92 0.4,30.49l0 23.64c0,16.39 -0.27,27.27 -0.94,30.76 -0.81,3.9 -1.48,5.11 -3.63,5.78 -1.21,0.4 -2.82,0.54 -4.03,0.54 -0.81,0 -1.08,0.4 -1.08,0.81 0,0.81 0.67,1.07 2.15,1.07 2.95,0 9.67,-0.4 13.17,-0.4 3.89,0 12.89,0.81 33.18,0.81 5.24,0 6.31,0 7.25,-3.49 0.67,-2.82 1.75,-11.96 1.75,-13.03 0,-0.94 0,-2.02 -0.81,-2.02 -0.67,0 -0.94,0.54 -1.21,2.02 -0.94,5.51 -2.55,8.19 -6.04,9.67 -3.49,1.48 -9.4,1.48 -12.9,1.48 -13.17,0 -15.58,-2.15 -15.58,-11.01l0 -34.79c0,-0.54 0.27,-0.94 0.94,-0.94 2.28,0 15.58,0.27 19.21,0.67 5.24,0.54 6.45,2.82 6.99,4.7 0.53,1.75 0.53,3.09 0.53,4.43 0,0.68 0.27,1.21 0.94,1.21 0.81,0 0.94,-1.07 0.94,-2.55 0,-6.58 1.61,-15.58 1.61,-16.12 0,-0.81 -0.27,-1.07 -0.67,-1.07 -0.54,0 -1.08,0.67 -2.02,1.75 -1.21,1.34 -3.09,1.61 -6.31,1.88 -3.09,0.27 -19.61,0.27 -21.36,0.27 -0.67,0 -0.81,-0.4 -0.81,-1.34l0 -37.07zm72.54 12.36c4.3,4.84 19.48,21.76 35.06,38.55 14.24,15.31 33.58,35.06 35.06,36.4 7.12,7.12 8.73,8.6 9.81,8.6 0.94,0 1.21,-0.67 1.21,-9.54l0.27 -78.72c0,-8.06 0.54,-11.01 4.97,-11.96 1.61,-0.4 2.55,-0.4 3.22,-0.4 0.94,0 1.48,-0.4 1.48,-0.94 0,-0.8 -0.94,-0.94 -2.42,-0.94 -5.51,0 -9.94,0.4 -11.42,0.4 -1.48,0 -7.92,-0.4 -13.97,-0.4 -1.61,0 -2.69,0.14 -2.69,0.94 0,0.54 0.14,0.94 1.07,0.94 1.08,0 4.16,0.14 6.58,0.67 4.16,1.07 5.11,4.03 5.24,12.76l1.48 68.24c-4.3,-4.43 -18.94,-20.82 -32.24,-35.06 -20.69,-22.16 -40.7,-43.79 -42.72,-46.08 -1.34,-1.34 -3.63,-4.3 -4.7,-4.3 -1.08,0 -1.48,1.48 -1.48,6.72l-0.14 76.97c0,12.22 -0.67,16.12 -4.03,17.06 -2.02,0.67 -4.43,0.8 -5.51,0.8 -0.67,0 -1.08,0.27 -1.08,0.81 0,0.94 0.81,1.07 2.15,1.07 6.04,0 11.69,-0.4 12.9,-0.4 1.21,0 6.58,0.4 14.24,0.4 1.61,0 2.42,-0.27 2.42,-1.07 0,-0.54 -0.4,-0.81 -1.07,-0.81 -1.21,0 -4.16,-0.14 -6.72,-0.8 -3.63,-1.08 -4.97,-4.57 -5.24,-15.58l-1.75 -64.34zm136.61 20.01c0,-20.96 0,-24.72 0.27,-29.01 0.27,-4.7 1.34,-6.99 4.97,-7.66 1.61,-0.27 2.42,-0.4 3.36,-0.4 0.54,0 1.07,-0.27 1.07,-0.81 0,-0.81 -0.67,-1.07 -2.15,-1.07 -4.03,0 -12.49,0.4 -13.17,0.4 -0.67,0 -9.13,-0.4 -13.57,-0.4 -1.48,0 -2.15,0.27 -2.15,1.07 0,0.54 0.54,0.81 1.08,0.81 0.94,0 2.68,0.14 4.16,0.54 2.96,0.67 4.3,2.96 4.57,7.52 0.27,4.3 0.27,8.06 0.27,29.01l0 23.64c0,12.9 0,23.51 -0.67,29.15 -0.53,3.89 -1.21,6.85 -3.89,7.39 -1.21,0.27 -2.82,0.54 -4.03,0.54 -0.81,0 -1.08,0.4 -1.08,0.81 0,0.81 0.67,1.07 2.15,1.07 4.03,0 12.49,-0.4 13.16,-0.4 0.67,0 9.14,0.4 16.52,0.4 1.48,0 2.15,-0.4 2.15,-1.07 0,-0.4 -0.27,-0.81 -1.07,-0.81 -1.21,0 -4.16,-0.27 -6.04,-0.54 -4.03,-0.54 -4.84,-3.49 -5.24,-7.39 -0.67,-5.64 -0.67,-16.25 -0.67,-29.15l0 -23.64zm40.03 19.61c0,19.61 5.1,29.01 11.69,35.33 9.54,9 23.11,9.54 27.67,9.54 7.92,0 18,-1.34 27.67,-9.94 10.75,-9.54 12.36,-25.66 12.36,-40.16l0 -14.37c0,-20.96 0,-24.72 0.27,-29.01 0.27,-4.7 1.34,-6.99 4.97,-7.66 1.61,-0.4 2.42,-0.4 3.36,-0.4 0.54,0 1.07,-0.27 1.07,-0.81 0,-0.81 -0.67,-1.07 -2.15,-1.07 -4.03,0 -10.34,0.4 -11.28,0.4 -0.81,0 -8.19,-0.4 -14.24,-0.4 -1.48,0 -2.15,0.27 -2.15,1.07 0,0.54 0.54,0.81 1.07,0.81 1.21,0 3.49,0.14 4.57,0.4 4.43,0.94 5.51,3.09 5.78,7.66 0.27,4.3 0.27,8.06 0.27,29.01l0 16.79c0,13.84 -1.61,25.25 -7.79,32.91 -4.84,5.77 -12.89,9.67 -21.09,9.67 -7.65,0 -13.7,-1.21 -20.28,-7.39 -5.78,-5.51 -10.08,-13.84 -10.08,-33.18l0 -18.81c0,-20.96 0,-24.72 0.27,-29.01 0.27,-4.7 1.34,-7.12 4.97,-7.66 1.61,-0.27 2.42,-0.4 3.36,-0.4 0.54,0 1.07,-0.27 1.07,-0.81 0,-0.81 -0.67,-1.07 -2.15,-1.07 -4.03,0 -12.09,0.4 -13.3,0.4 -1.21,0 -9.4,-0.4 -15.45,-0.4 -1.48,0 -2.15,0.27 -2.15,1.07 0,0.54 0.54,0.81 1.08,0.81 1.21,0 3.49,0.14 4.56,0.4 4.43,0.94 5.51,3.09 5.78,7.66 0.27,4.3 0.27,8.06 0.27,29.01l0 19.61zm210.22 -56.82c-0.27,-2.55 -0.67,-3.63 -1.61,-3.63 -0.94,0 -1.48,0.94 -2.02,2.15l-39.49 84.36 -41.11 -84.49c-0.67,-1.48 -1.21,-2.02 -2.02,-2.02 -0.8,0 -1.21,0.94 -1.48,2.42l-9.67 87.58c-0.53,5.1 -0.94,10.35 -5.37,11.15 -2.01,0.4 -2.95,0.4 -4.03,0.4 -0.67,0 -1.34,0.27 -1.34,0.67 0,0.94 0.94,1.21 2.28,1.21 3.63,0 10.07,-0.4 11.28,-0.4 1.08,0 7.52,0.4 12.49,0.4 1.61,0 2.42,-0.27 2.42,-1.21 0,-0.4 -0.54,-0.67 -1.07,-0.67 -0.8,0 -2.82,-0.14 -5.11,-0.67 -2.01,-0.4 -3.49,-2.15 -3.49,-4.16 0,-2.28 0,-4.7 0.13,-6.85l5.37 -62.33 0.54 0c1.48,3.63 16.52,35.87 17.73,38.28 0.67,1.34 12.22,24.58 15.71,31.16 2.55,4.7 3.22,6.04 4.16,6.04 1.21,0 1.61,-1.21 4.43,-7.1l32.91 -69.78 0.4 0 6.45 69.25c0.27,2.42 0.14,4.68 -0.54,4.81 -0.67,0.14 -0.94,0.4 -0.94,0.94 0,0.67 0.67,1.07 3.76,1.34 4.97,0.54 19.48,0.94 22.43,0.94 1.61,0 2.82,-0.4 2.82,-1.21 0,-0.54 -0.4,-0.67 -1.07,-0.67 -1.34,-0.14 -4.84,-0.14 -8.73,-1.34 -5.78,-1.88 -6.72,-9.38 -7.25,-14.22l-9 -82.37z"/>
  </g>
 </g>
</svg>
